# xmcd CD database file generated by OrangeCD 5.2
#
# Track frame offsets:
#	150
#	9725
#	13931
#	17917
#	30632
#	44128
#	56231
#	59768
#	64689
#	79502
#	93345
#	105615
#	117040
#	132142
#	146831
#	160504
#	173576
#	187811
#	205683
#	219909
#	236273
#	247889
#
# Disc length: 3472 seconds
#
# Revision: 0
# Processed by: cddbd v1.5.1PL0 Copyright (c) Steve Scherf et al.
# Submitted via: OrangeCD 5.2
#
DISCID=240d8e16
DTITLE=Charley Pride - The Best Of
DYEAR=1994
DGENRE=Country
TTITLE0=Kiss An Angel Good Mornin' (Live)
TTITLE1=Wonder Could I Live There Anymore? (Live)
TTITLE2=Is Anybody Goin' To San Antone (Live)
TTITLE3=Help Me Make It Through The Night (Live)
TTITLE4=I'm So Afraid Of Losing You Again (Live)
TTITLE5=There Goes My Everything (Live)
TTITLE6=Does My Ring Hurt Your Finger? (Live)
TTITLE7=Too Good To Be True (Live)
TTITLE8=White House
TTITLE9=Can't Stop The Mississippi
TTITLE10=You Put It There
TTITLE11=Sail Away
TTITLE12=Moody Woman
TTITLE13=Charley Pride and Dion Pride - Heaven Help Us All
TTITLE14=Amy's Eyes
TTITLE15=After Me, After You
TTITLE16=I Made Love To You In My Mind
TTITLE17=The More I Do
TTITLE18=Have I Got Some Blues For You
TTITLE19=Me and Bobby McGee (Live)
TTITLE20=Louisiana Man (Live)
TTITLE21=Crystal Chandeliers (Live)
EXTD=
EXTT0=
EXTT1=
EXTT2=
EXTT3=
EXTT4=
EXTT5=
EXTT6=
EXTT7=
EXTT8=
EXTT9=
EXTT10=
EXTT11=
EXTT12=
EXTT13=
EXTT14=
EXTT15=
EXTT16=
EXTT17=
EXTT18=
EXTT19=
EXTT20=
EXTT21=
PLAYORDER=
